HIERARCHY
ROOT reference
{
  OFFSET 0 0 0
  CHANNELS 6 Xposition Yposition Zposition Zrotation Xrotation Yrotation
  JOINT Hips
  {
    OFFSET 19.8941 91.4584 12.6699
    CHANNELS 3 Zrotation Xrotation Yrotation
    JOINT RightUpLeg
    {
      OFFSET -9.21136 -1.54315 -0.00338228
      CHANNELS 3 Zrotation Xrotation Yrotation
      JOINT RightLeg
      {
        OFFSET 0.100199 -41.8913 0.117885
        CHANNELS 3 Zrotation Xrotation Yrotation
        JOINT RightFoot
        {
          OFFSET -0.0312538 -39.9042 0.200326
          CHANNELS 3 Zrotation Xrotation Yrotation
          End Site
          {
            OFFSET 0 -7.69 17.5
          }
        }
      }
    }
    JOINT LeftUpLeg
    {
      OFFSET 9.2904 -1.6473 0.00344049
      CHANNELS 3 Zrotation Xrotation Yrotation
      JOINT LeftLeg
      {
        OFFSET 0.15381 -41.8817 -0.0541105
        CHANNELS 3 Zrotation Xrotation Yrotation
        JOINT LeftFoot
        {
          OFFSET 0.872932 -43.9846 -0.139608
          CHANNELS 3 Zrotation Xrotation Yrotation
          End Site
          {
            OFFSET 0 -7.69 17.5
          }
        }
      }
    }
    JOINT Spine
    {
      OFFSET 0.0768477 14.3139 0.027738
      CHANNELS 3 Zrotation Xrotation Yrotation
      JOINT Spine1
      {
        OFFSET -0.0133682 9.71866 0.00713354
        CHANNELS 3 Zrotation Xrotation Yrotation
        JOINT Spine2
        {
          OFFSET -0.0175262 10.1212 -0.00524987
          CHANNELS 3 Zrotation Xrotation Yrotation
          JOINT Spine3
          {
            OFFSET -0.00348171 9.71796 0.0104149
            CHANNELS 3 Zrotation Xrotation Yrotation
            JOINT Neck
            {
              OFFSET -0.0845439 10.3822 0.044921
              CHANNELS 3 Zrotation Xrotation Yrotation
              JOINT Head
              {
                OFFSET -0.0310878 9.44025 0.0694291
                CHANNELS 3 Zrotation Xrotation Yrotation
                End Site
                {
                  OFFSET 0 15.95 0
                }
              }
            }
            JOINT RightShoulder
            {
              OFFSET -3.20882 6.90619 -0.0326675
              CHANNELS 3 Zrotation Xrotation Yrotation
              JOINT RightArm
              {
                OFFSET -12.8514 -0.0142271 -0.0483735
                CHANNELS 3 Zrotation Xrotation Yrotation
                JOINT RightForeArm
                {
                  OFFSET -26.4475 -0.0994884 -0.035967
                  CHANNELS 3 Zrotation Xrotation Yrotation
                  JOINT RightHand
                  {
                    OFFSET -25.9226 -0.102631 -0.136889
                    CHANNELS 3 Zrotation Xrotation Yrotation
                    JOINT RightHandThumb1
                    {
                      OFFSET -2.48905 0.190105 3.12053
                      CHANNELS 3 Zrotation Xrotation Yrotation
                      JOINT RightHandThumb2
                      {
                        OFFSET -3.68274 0 0
                        CHANNELS 3 Zrotation Xrotation Yrotation
                        JOINT RightHandThumb3
                        {
                          OFFSET -2.55832 0 0
                          CHANNELS 3 Zrotation Xrotation Yrotation
                          End Site
                          {
                            OFFSET -2.194 0 0
                          }
                        }
                      }
                    }
                    JOINT RightInHandIndex
                    {
                      OFFSET -3.22368 0.508421 1.97842
                      CHANNELS 3 Zrotation Xrotation Yrotation
                      JOINT RightHandIndex1
                      {
                        OFFSET -5.21684 -0.091368 0.999158
                        CHANNELS 3 Zrotation Xrotation Yrotation
                        JOINT RightHandIndex2
                        {
                          OFFSET -3.61937 0 0
                          CHANNELS 3 Zrotation Xrotation Yrotation
                          JOINT RightHandIndex3
                          {
                            OFFSET -2.0521 0 0
                            CHANNELS 3 Zrotation Xrotation Yrotation
                            End Site
                            {
                              OFFSET -1.805 0 0
                            }
                          }
                        }
                      }
                    }
                    JOINT RightInHandMiddle
                    {
                      OFFSET -3.38211 0.517263 0.756737
                      CHANNELS 3 Zrotation Xrotation Yrotation
                      JOINT RightHandMiddle1
                      {
                        OFFSET -5.17411 -0.084 0.313895
                        CHANNELS 3 Zrotation Xrotation Yrotation
                        JOINT RightHandMiddle2
                        {
                          OFFSET -3.94947 0 0
                          CHANNELS 3 Zrotation Xrotation Yrotation
                          JOINT RightHandMiddle3
                          {
                            OFFSET -2.47579 0 0
                            CHANNELS 3 Zrotation Xrotation Yrotation
                            End Site
                            {
                              OFFSET -1.975 0 0
                            }
                          }
                        }
                      }
                    }
                    JOINT RightInHandRing
                    {
                      OFFSET -3.36516 0.537895 -0.128947
                      CHANNELS 3 Zrotation Xrotation Yrotation
                      JOINT RightHandRing1
                      {
                        OFFSET -4.63474 -0.022105 -0.478947
                        CHANNELS 3 Zrotation Xrotation Yrotation
                        JOINT RightHandRing2
                        {
                          OFFSET -3.44238 0 0
                          CHANNELS 3 Zrotation Xrotation Yrotation
                          JOINT RightHandRing3
                          {
                            OFFSET -2.3881 0 0
                            CHANNELS 3 Zrotation Xrotation Yrotation
                            End Site
                            {
                              OFFSET -1.857 0 0
                            }
                          }
                        }
                      }
                    }
                    JOINT RightInHandPinky
                    {
                      OFFSET -3.16105 0.469368 -1.20179
                      CHANNELS 3 Zrotation Xrotation Yrotation
                      JOINT RightHandPinky1
                      {
                        OFFSET -4.14105 -0.022105 -1.09053
                        CHANNELS 3 Zrotation Xrotation Yrotation
                        JOINT RightHandPinky2
                        {
                          OFFSET -2.75653 0 0
                          CHANNELS 3 Zrotation Xrotation Yrotation
                          JOINT RightHandPinky3
                          {
                            OFFSET -1.74189 0 0
                            CHANNELS 3 Zrotation Xrotation Yrotation
                            End Site
                            {
                              OFFSET -1.645 0 0
                            }
                          }
                        }
                      }
                    }
                  }
                }
              }
            }
            JOINT LeftShoulder
            {
              OFFSET 3.19355 6.9059 0.0487761
              CHANNELS 3 Zrotation Xrotation Yrotation
              JOINT LeftArm
              {
                OFFSET 12.7349 -0.00433124 -0.0458964
                CHANNELS 3 Zrotation Xrotation Yrotation
                JOINT LeftForeArm
                {
                  OFFSET 26.4064 -0.194468 0.00909971
                  CHANNELS 3 Zrotation Xrotation Yrotation
                  JOINT LeftHand
                  {
                    OFFSET 25.9027 0.0515579 -0.250056
                    CHANNELS 3 Zrotation Xrotation Yrotation
                    JOINT LeftHandThumb1
                    {
                      OFFSET 2.48905 0.190105 3.12053
                      CHANNELS 3 Zrotation Xrotation Yrotation
                      JOINT LeftHandThumb2
                      {
                        OFFSET 3.68274 0 0
                        CHANNELS 3 Zrotation Xrotation Yrotation
                        JOINT LeftHandThumb3
                        {
                          OFFSET 2.55832 0 0
                          CHANNELS 3 Zrotation Xrotation Yrotation
                          End Site
                          {
                            OFFSET 2.194 0 0
                          }
                        }
                      }
                    }
                    JOINT LeftInHandIndex
                    {
                      OFFSET 3.22368 0.508421 1.97842
                      CHANNELS 3 Zrotation Xrotation Yrotation
                      JOINT LeftHandIndex1
                      {
                        OFFSET 5.21684 -0.091368 0.999158
                        CHANNELS 3 Zrotation Xrotation Yrotation
                        JOINT LeftHandIndex2
                        {
                          OFFSET 3.61937 0 0
                          CHANNELS 3 Zrotation Xrotation Yrotation
                          JOINT LeftHandIndex3
                          {
                            OFFSET 2.0521 0 0
                            CHANNELS 3 Zrotation Xrotation Yrotation
                            End Site
                            {
                              OFFSET 1.805 0 0
                            }
                          }
                        }
                      }
                    }
                    JOINT LeftInHandMiddle
                    {
                      OFFSET 3.38211 0.517263 0.756737
                      CHANNELS 3 Zrotation Xrotation Yrotation
                      JOINT LeftHandMiddle1
                      {
                        OFFSET 5.17411 -0.084 0.313895
                        CHANNELS 3 Zrotation Xrotation Yrotation
                        JOINT LeftHandMiddle2
                        {
                          OFFSET 3.94947 0 0
                          CHANNELS 3 Zrotation Xrotation Yrotation
                          JOINT LeftHandMiddle3
                          {
                            OFFSET 2.47579 0 0
                            CHANNELS 3 Zrotation Xrotation Yrotation
                            End Site
                            {
                              OFFSET 1.975 0 0
                            }
                          }
                        }
                      }
                    }
                    JOINT LeftInHandRing
                    {
                      OFFSET 3.36516 0.537895 -0.128947
                      CHANNELS 3 Zrotation Xrotation Yrotation
                      JOINT LeftHandRing1
                      {
                        OFFSET 4.63474 -0.022105 -0.478947
                        CHANNELS 3 Zrotation Xrotation Yrotation
                        JOINT LeftHandRing2
                        {
                          OFFSET 3.44238 0 0
                          CHANNELS 3 Zrotation Xrotation Yrotation
                          JOINT LeftHandRing3
                          {
                            OFFSET 2.3881 0 0
                            CHANNELS 3 Zrotation Xrotation Yrotation
                            End Site
                            {
                              OFFSET 1.857 0 0
                            }
                          }
                        }
                      }
                    }
                    JOINT LeftInHandPinky
                    {
                      OFFSET 3.16105 0.469368 -1.20179
                      CHANNELS 3 Zrotation Xrotation Yrotation
                      JOINT LeftHandPinky1
                      {
                        OFFSET 4.14105 -0.022105 -1.09053
                        CHANNELS 3 Zrotation Xrotation Yrotation
                        JOINT LeftHandPinky2
                        {
                          OFFSET 2.75653 0 0
                          CHANNELS 3 Zrotation Xrotation Yrotation
                          JOINT LeftHandPinky3
                          {
                            OFFSET 1.74189 0 0
                            CHANNELS 3 Zrotation Xrotation Yrotation
                            End Site
                            {
                              OFFSET 1.645 0 0
                            }
                          }
                        }
                      }
                    }
                  }
                }
              }
            }
          }
        }
      }
    }
  }
}
MOTION
Frames:	7
Frame Time:	0.00416667
0 0 0 0 0 -0 29.051 -21.0993 -111.642 -19.0231 -51.6504 -15.7268 -4.06092 11.0348 23.204 9.55036 2.86456 40.9619 11.0041 -40.4264 18.7643 -0.832201 2.89802 -12.6926 -12.9461 5.07875 -14.9221 4.83395 21.1782 5.86631 1.35671 4.58935 2.06467 2.17834 6.81173 3.60123 -1.51657 -0.091295 -0.573622 -1.53882 -0.109616 -0.582213 -29.1571 -2.78126 -10.3132 -6.71242 -6.43741 19.1674 33.0564 20.0262 61.7262 -149.932 -85.0772 -147.981 9.12281 -1.34367 -9.57437 28.184 10.7294 19.1592 -2.10798e-15 6.36111e-15 -10 5.60818e-16 3.18055e-15 -10 -3.18055e-15 6.36111e-15 3.18055e-15 19.9818 0.871897 2.3964 24 -1.19271e-15 6.36111e-15 20 6.36111e-15 3.18055e-15 -3.18055e-15 6.36111e-15 3.18055e-15 20 4.77083e-15 9.54166e-15 24 2.78299e-15 1.59028e-14 20 3.18055e-15 -3.18055e-15 -3.18055e-15 6.36111e-15 3.18055e-15 19.9748 -1.02565 -2.81938 24 6.75868e-15 -1.27222e-14 20 3.18055e-15 -9.54166e-15 -3.18055e-15 6.36111e-15 3.18055e-15 19.7815 -3.00948 -8.30515 24 -6.80837e-15 -0 20 4.77083e-15 -3.18055e-15 -28.6193 -7.3414 -13.7135 -5.3523 48.3334 -98.064 3.285 -55.0259 -1.62637 -8.68331 13.9788 10.4455 -28.184 10.7294 -19.1592 -5.94639e-16 7.95139e-15 10 -1.92904e-15 6.36111e-15 10 -5.56597e-15 3.18055e-15 1.59028e-15 -19.9818 0.871897 -2.3964 -24 1.59028e-15 6.36111e-15 -20 2.08724e-15 -6.36111e-15 -5.56597e-15 3.18055e-15 1.59028e-15 -20 0 -3.18055e-15 -24 -3.18055e-15 -0 -20 1.19271e-15 2.22639e-14 -5.56597e-15 3.18055e-15 1.59028e-15 -19.9748 -1.02565 2.81938 -24 -3.18055e-15 3.18055e-15 -20 0 -0 -5.56597e-15 3.18055e-15 1.59028e-15 -19.7815 -3.00948 8.30515 -24 -3.18055e-15 9.54166e-15 -20 -6.36111e-15 3.18055e-15 
0 0 0 0 0 -0 29.0363 -21.0915 -111.631 -19.0265 -51.6356 -15.7318 -4.07229 11.0408 23.2092 9.55057 2.85762 40.9566 10.9926 -40.4233 18.763 -0.835223 2.90934 -12.7015 -12.9432 5.08482 -14.9343 4.8311 21.1517 5.8266 1.35466 4.58764 2.05283 2.175 6.81247 3.58186 -1.51625 -0.0909289 -0.573115 -1.53848 -0.108959 -0.581729 -29.1522 -2.75285 -10.2931 -6.82205 -6.38437 19.0006 33.3945 19.8707 61.66 -155.422 -84.7768 -153.223 9.01658 -1.29765 -9.61383 28.184 10.7294 19.1592 1.61481e-15 0 -10 6.45924e-15 0 -10 -6.36111e-15 6.36111e-15 -6.36111e-15 19.9818 0.871897 2.3964 24 3.57812e-15 9.54166e-15 20 -1.59028e-15 1.27222e-14 -6.36111e-15 6.36111e-15 -6.36111e-15 20 1.59028e-15 3.18055e-15 24 -7.55382e-15 6.36111e-15 20 1.59028e-15 9.54166e-15 -6.36111e-15 6.36111e-15 -6.36111e-15 19.9748 -1.02565 -2.81938 24 -1.59028e-15 9.54166e-15 20 0 9.54166e-15 -6.36111e-15 6.36111e-15 -6.36111e-15 19.7815 -3.00948 -8.30515 24 -1.59028e-15 -0 20 0 1.90833e-14 -28.586 -7.33399 -13.7443 -5.27371 48.3215 -98.2119 3.41011 -54.4442 -1.51296 -8.94084 14.0008 10.5623 -28.184 10.7294 -19.1592 8.88145e-15 0 10 -9.72268e-15 4.77083e-15 10 -3.18055e-15 3.18055e-15 1.59028e-15 -19.9818 0.871897 -2.3964 -24 1.59028e-15 -6.36111e-15 -20 -1.32806e-15 -9.54166e-15 -3.18055e-15 3.18055e-15 1.59028e-15 -20 -3.18055e-15 -9.54166e-15 -24 0 3.18055e-15 -20 0 9.54166e-15 -3.18055e-15 3.18055e-15 1.59028e-15 -19.9748 -1.02565 2.81938 -24 4.77083e-15 -9.54166e-15 -20 -2.78299e-15 6.36111e-15 -3.18055e-15 3.18055e-15 1.59028e-15 -19.7815 -3.00948 8.30515 -24 -3.18055e-15 -6.36111e-15 -20 1.59028e-15 3.18055e-15 
0 0 0 0 0 -0 29.0163 -21.088 -111.624 -19.025 -51.6207 -15.732 -4.08181 11.0496 23.2168 9.54766 2.85041 40.949 10.9758 -40.4182 18.7614 -0.840189 2.92202 -12.7139 -12.9402 5.08975 -14.9456 4.82616 21.1262 5.78389 1.35203 4.58625 2.03999 2.17076 6.81334 3.5608 -1.5158 -0.0906192 -0.572565 -1.53799 -0.108484 -0.581201 -29.1751 -2.72545 -10.2672 -6.90096 -6.33902 18.8937 33.7303 19.7015 61.5334 -160.756 -84.3518 -158.26 8.8919 -1.17606 -9.68766 28.184 10.7294 19.1592 5.60818e-16 3.18055e-15 -10 1.23577e-14 -3.18055e-15 -10 -0 -3.18055e-15 -0 19.9818 0.871897 2.3964 24 0 3.18055e-15 20 -1.59028e-15 6.36111e-15 -0 -3.18055e-15 -0 20 -1.59028e-15 3.18055e-15 24 4.37326e-15 1.59028e-14 20 1.59028e-15 3.18055e-15 -0 -3.18055e-15 -0 19.9748 -1.02565 -2.81938 24 -6.16232e-15 -6.36111e-15 20 -3.18055e-15 -6.36111e-15 -0 -3.18055e-15 -0 19.7815 -3.00948 -8.30515 24 -3.37934e-15 -6.36111e-15 20 0 3.18055e-15 -28.5553 -7.33067 -13.7418 -5.13468 48.316 -98.4377 3.5402 -53.8915 -1.39877 -9.1936 14.0204 10.6736 -28.184 10.7294 -19.1592 -3.40365e-15 5.56597e-15 10 3.47621e-15 3.18055e-15 10 7.95139e-16 9.54166e-15 1.59028e-15 -19.9818 0.871897 -2.3964 -24 1.59028e-15 -0 -20 -3.32964e-15 6.36111e-15 7.95139e-16 9.54166e-15 1.59028e-15 -20 0 -3.18055e-15 -24 3.18055e-15 -9.54166e-15 -20 -1.19271e-15 -6.36111e-15 7.95139e-16 9.54166e-15 1.59028e-15 -19.9748 -1.02565 2.81938 -24 -4.77083e-15 1.90833e-14 -20 -3.97569e-16 -9.54166e-15 7.95139e-16 9.54166e-15 1.59028e-15 -19.7815 -3.00948 8.30515 -24 3.18055e-15 6.36111e-15 -20 1.59028e-15 3.18055e-15 
0 0 0 0 0 -0 28.9996 -21.078 -111.613 -19.0216 -51.6064 -15.7334 -4.09302 11.0604 23.2241 9.54475 2.84092 40.9402 10.9662 -40.4118 18.7597 -0.846148 2.93339 -12.7277 -12.9349 5.09396 -14.9548 4.82591 21.0986 5.73557 1.35033 4.58527 2.02606 2.16802 6.81447 3.53805 -1.51524 -0.0903587 -0.571647 -1.53739 -0.108085 -0.580295 -29.1713 -2.69884 -10.2314 -7.05875 -6.2935 18.5457 34.0755 19.6498 61.6216 -163.553 -84.3364 -160.938 8.80405 -1.51759 -9.49473 28.184 10.7294 19.1592 8.63487e-15 3.18055e-15 -10 3.79044e-15 3.18055e-15 -10 -1.76556e-31 -3.18055e-15 -3.18055e-15 19.9818 0.871897 2.3964 24 3.97569e-15 6.36111e-15 20 7.95139e-16 3.18055e-15 -1.76556e-31 -3.18055e-15 -3.18055e-15 20 -1.59028e-15 -9.54166e-15 24 9.14409e-15 1.90833e-14 20 -1.59028e-15 -3.18055e-15 -1.76556e-31 -3.18055e-15 -3.18055e-15 19.9748 -1.02565 -2.81938 24 -2.78299e-15 9.54166e-15 20 4.77083e-15 9.54166e-15 -1.76556e-31 -3.18055e-15 -3.18055e-15 19.7815 -3.00948 -8.30515 24 -3.77691e-15 3.18055e-15 20 -1.59028e-15 -6.36111e-15 -28.5223 -7.33436 -13.8947 -5.17715 48.304 -98.4279 3.66852 -53.3415 -1.29517 -9.43478 14.0376 10.7871 -28.184 10.7294 -19.1592 -1.96778e-15 -7.15625e-15 10 -1.23294e-16 -1.59028e-15 10 -0 -3.18055e-15 -0 -19.9818 0.871897 -2.3964 -24 1.59028e-15 3.18055e-15 -20 -2.28602e-15 3.18055e-15 -0 -3.18055e-15 -0 -20 -6.36111e-15 6.36111e-15 -24 0 2.22639e-14 -20 7.95139e-16 -6.36111e-15 -0 -3.18055e-15 -0 -19.9748 -1.02565 2.81938 -24 4.77083e-15 9.54166e-15 -20 0 3.18055e-15 -0 -3.18055e-15 -0 -19.7815 -3.00948 8.30515 -24 -3.18055e-15 3.18055e-15 -20 -7.95139e-16 -0 
0 0 0 0 0 -0 28.9869 -21.0603 -111.598 -19.0142 -51.5927 -15.7368 -4.10625 11.0733 23.2308 9.5421 2.82891 40.9304 10.9653 -40.4041 18.7582 -0.853063 2.94323 -12.7429 -12.927 5.09744 -14.9616 4.8311 21.0685 5.68139 1.34973 4.58451 2.01104 2.16702 6.81672 3.51365 -1.51459 -0.0901404 -0.568787 -1.5367 -0.107751 -0.577388 -29.1349 -2.67292 -10.1853 -7.30803 -6.2463 17.9189 34.4307 19.7305 61.9584 -164.211 -84.8182 -161.677 8.76995 -2.3843 -9.00266 28.184 10.7294 19.1592 6.45924e-15 0 -10 4.84443e-15 0 -10 1.59028e-15 3.18055e-15 -6.36111e-15 19.9818 0.871897 2.3964 24 -3.97569e-16 9.54166e-15 20 7.95139e-15 -3.18055e-15 1.59028e-15 3.18055e-15 -6.36111e-15 20 3.18055e-15 6.36111e-15 24 1.98785e-15 3.18055e-15 20 4.77083e-15 1.90833e-14 1.59028e-15 3.18055e-15 -6.36111e-15 19.9748 -1.02565 -2.81938 24 5.1684e-15 9.54166e-15 20 -1.59028e-15 6.36111e-15 1.59028e-15 3.18055e-15 -6.36111e-15 19.7815 -3.00948 -8.30515 24 4.96962e-15 1.27222e-14 20 -4.77083e-15 3.18055e-15 -28.4865 -7.34541 -14.2269 -5.43021 48.2838 -98.1449 3.79514 -52.7923 -1.2027 -9.66348 14.0526 10.9033 -28.184 10.7294 -19.1592 -8.88145e-15 0 10 -1.74825e-14 -1.59028e-15 10 -0 0 1.59028e-15 -19.9818 0.871897 -2.3964 -24 0 -0 -20 1.78906e-15 -6.36111e-15 -0 0 1.59028e-15 -20 0 -3.18055e-15 -24 0 -3.18055e-15 -20 3.67752e-15 9.54166e-15 -0 0 1.59028e-15 -19.9748 -1.02565 2.81938 -24 -4.77083e-15 -0 -20 1.59028e-15 -0 -0 0 1.59028e-15 -19.7815 -3.00948 8.30515 -24 3.18055e-15 9.54166e-15 -20 1.59028e-15 -3.18055e-15 
0 0 0 0 0 -0 28.9698 -21.0482 -111.589 -19.0062 -51.5788 -15.7301 -4.11962 11.0857 23.2377 9.53956 2.81703 40.9189 10.9609 -40.3952 18.7585 -0.860274 2.95289 -12.7573 -12.9218 5.10265 -14.9688 4.83273 21.0387 5.62321 1.34816 4.58392 1.99459 2.16443 6.82005 3.48687 -1.51389 -0.0899572 -0.565625 -1.53595 -0.107474 -0.574184 -29.1216 -2.65088 -10.1313 -7.44394 -6.20663 17.5707 34.778 19.7042 62.0278 -165.072 -85.323 -162.619 8.7384 -3.27295 -8.48623 28.184 10.7294 19.1592 -1.13037e-14 0 -10 -5.60818e-16 -3.18055e-15 -10 0 0 -0 19.9818 0.871897 2.3964 24 4.77083e-15 9.54166e-15 20 0 6.36111e-15 0 0 -0 20 -1.59028e-15 3.18055e-15 24 4.57205e-15 9.54166e-15 20 6.36111e-15 1.27222e-14 0 0 -0 19.9748 -1.02565 -2.81938 24 4.37326e-15 -0 20 0 9.54166e-15 0 0 -0 19.7815 -3.00948 -8.30515 24 7.7526e-15 6.36111e-15 20 0 -3.18055e-15 -28.4589 -7.35299 -14.4038 -5.49067 48.2759 -98.1047 3.93204 -52.2427 -1.10231 -9.89453 14.0638 11.018 -28.184 10.7294 -19.1592 1.01095e-14 -2.38542e-15 10 5.43907e-15 -7.95139e-15 10 -1.59028e-15 0 3.18055e-15 -19.9818 0.871897 -2.3964 -24 -1.59028e-15 -0 -20 -1.19271e-15 6.36111e-15 -1.59028e-15 0 3.18055e-15 -20 6.36111e-15 6.36111e-15 -24 0 9.54166e-15 -20 -1.2921e-15 3.18055e-15 -1.59028e-15 0 3.18055e-15 -19.9748 -1.02565 2.81938 -24 3.18055e-15 6.36111e-15 -20 2.38542e-15 -0 -1.59028e-15 0 3.18055e-15 -19.7815 -3.00948 8.30515 -24 -1.59028e-15 3.18055e-15 -20 7.95139e-16 -6.36111e-15 
0 0 0 0 0 -0 28.9485 -21.0413 -111.586 -18.9976 -51.5645 -15.7139 -4.13324 11.0975 23.2451 9.53722 2.80515 40.9056 10.9556 -40.3843 18.7639 -0.86769 2.96234 -12.771 -12.9192 5.10947 -14.9764 4.83096 21.0089 5.56101 1.34566 4.58348 1.97672 2.16031 6.82442 3.45772 -1.51316 -0.0898021 -0.562179 -1.53517 -0.107244 -0.5707 -29.1295 -2.63269 -10.0695 -7.47091 -6.17494 17.4925 35.1183 19.5753 61.8381 -166.371 -85.8226 -163.986 8.70743 -4.15574 -7.96049 28.184 10.7294 19.1592 -1.61481e-15 0 -10 8.00641e-15 -9.54166e-15 -10 1.59028e-15 -6.36111e-15 -0 19.9818 0.871897 2.3964 24 0 9.54166e-15 20 1.59028e-15 -3.18055e-15 1.59028e-15 -6.36111e-15 -0 20 4.77083e-15 -6.36111e-15 24 -1.98785e-15 -6.36111e-15 20 1.59028e-15 -3.18055e-15 1.59028e-15 -6.36111e-15 -0 19.9748 -1.02565 -2.81938 24 -6.55989e-15 -0 20 0 9.54166e-15 1.59028e-15 -6.36111e-15 -0 19.7815 -3.00948 -8.30515 24 3.57812e-15 -0 20 7.95139e-15 6.36111e-15 -28.4389 -7.35748 -14.4302 -5.36474 48.2804 -98.2994 4.07819 -51.6916 -0.994942 -10.1282 14.0713 11.1309 -28.184 10.7294 -19.1592 1.61481e-15 0 10 5.94639e-16 -7.95139e-15 10 -1.59028e-15 -6.36111e-15 -3.18055e-15 -19.9818 0.871897 -2.3964 -24 0 1.59028e-14 -20 -4.37326e-15 3.18055e-15 -1.59028e-15 -6.36111e-15 -3.18055e-15 -20 -1.27222e-14 9.54166e-15 -24 -3.18055e-15 3.18055e-15 -20 -3.23025e-16 -0 -1.59028e-15 -6.36111e-15 -3.18055e-15 -19.9748 -1.02565 2.81938 -24 1.59028e-15 -3.18055e-15 -20 -2.38542e-15 3.18055e-15 -1.59028e-15 -6.36111e-15 -3.18055e-15 -19.7815 -3.00948 8.30515 -24 -3.18055e-15 3.18055e-15 -20 7.95139e-16 3.18055e-15 
